<svg width="79" height="9" viewBox="0 0 79 9" fill="none" xmlns="http://www.w3.org/2000/svg">
<path fill-rule="evenodd" clip-rule="evenodd" d="M0.677486 4.5C0.586389 4.2834 0.658571 4.02577 0.861329 3.89059L6.02928 0.445295C6.25904 0.292119 6.56948 0.354206 6.72265 0.58397C6.87583 0.813735 6.81374 1.12417 6.58398 1.27735L2.49999 4L78.5 3.99999C78.7762 3.99999 79 4.22385 79 4.49999C79 4.77614 78.7762 5 78.5 5L2.50001 5L6.58398 7.72264C6.81374 7.87582 6.87583 8.18626 6.72265 8.41602C6.56948 8.64579 6.25904 8.70787 6.02928 8.5547L0.861329 5.1094C0.658571 4.97422 0.586389 4.71659 0.677486 4.5Z" fill="#949494"/>
</svg>
